<?xml version="1.0" standalone="no"?>
<!DOCTYPE svg PUBLIC "-//W3C//DTD SVG 20010904//EN"
 "http://www.w3.org/TR/2001/REC-SVG-20010904/DTD/svg10.dtd">
<svg version="1.0" xmlns="http://www.w3.org/2000/svg"
 width="260.000000pt" height="260.000000pt" viewBox="0 0 260.000000 260.000000"
 preserveAspectRatio="xMidYMid meet">
<metadata>
Created by potrace 1.11, written by Peter Selinger 2001-2013
</metadata>
<g transform="translate(0.000000,260.000000) scale(0.100000,-0.100000)"
fill="#000000" stroke="none">
<path d="M1120 2300 c11 -7 4 -10 -25 -11 -47 -2 -54 -3 -80 -13 -54 -21 -75
-28 -81 -26 -4 1 -11 -4 -15 -12 -7 -10 -9 -10 -9 2 0 13 -1 13 -10 0 -5 -8
-15 -15 -22 -15 -7 -1 -12 -6 -11 -13 2 -6 -3 -9 -10 -6 -7 2 -21 -3 -32 -12
-11 -8 -14 -13 -7 -9 11 6 17 -7 13 -28 -1 -5 2 -6 7 -3 5 3 16 -8 26 -25 9
-16 22 -29 27 -29 6 0 7 -4 4 -10 -11 -18 53 -11 90 10 20 11 40 18 46 15 5
-4 9 -2 9 3 0 6 9 8 20 5 11 -3 20 -1 20 4 0 8 26 14 83 17 15 0 27 4 27 7 0
10 174 7 187 -3 7 -6 14 -5 18 2 5 8 11 7 22 -2 9 -7 18 -12 20 -10 1 1 20 2
41 1 20 0 31 -3 24 -6 -10 -4 -10 -8 -1 -19 9 -11 8 -14 -1 -14 -8 0 -11 -3
-7 -6 3 -4 1 -12 -6 -20 -29 -32 -34 -41 -31 -57 1 -9 -4 -17 -12 -17 -9 0
-12 -4 -9 -10 3 -5 1 -10 -5 -10 -6 0 -8 -4 -5 -10 3 -5 1 -10 -5 -10 -6 0 -9
-4 -5 -9 3 -5 1 -12 -5 -16 -5 -3 -17 -23 -27 -43 -9 -20 -20 -39 -23 -42 -4
-3 -13 -20 -21 -37 -8 -18 -17 -33 -21 -33 -5 0 -8 -7 -8 -15 0 -8 -4 -15 -10
-15 -5 0 -10 -9 -10 -20 0 -11 -4 -20 -9 -20 -5 0 -11 -10 -13 -22 -2 -13 -9
-22 -15 -21 -6 1 -9 -6 -6 -17 3 -13 0 -20 -8 -20 -9 0 -6 -5 6 -12 22 -14 96
-18 89 -6 -3 5 -1 8 5 8 5 0 12 -4 15 -9 7 -10 31 -9 42 2 10 10 26 9 20 -1
-6 -10 90 -9 100 1 10 10 26 9 20 -1 -2 -4 7 -8 22 -9 24 -2 24 -1 7 7 -17 7
-16 9 11 9 16 1 36 -5 43 -11 9 -8 11 -8 8 -2 -9 15 16 25 33 14 7 -4 24 -6
38 -4 13 3 31 -1 40 -8 9 -8 13 -8 9 -2 -9 15 15 25 33 14 7 -4 24 -6 38 -4
13 3 31 -1 40 -8 12 -10 14 -10 8 0 -7 13 2 16 41 12 12 -1 30 3 40 9 10 6 12
11 6 11 -7 0 -13 5 -13 12 0 6 -8 20 -17 31 -10 11 -12 17 -5 13 11 -7 11 -4
1 13 -10 14 -15 17 -21 8 -5 -8 -8 -6 -8 6 0 37 -25 47 -110 47 -62 0 -79 3
-74 13 5 7 0 6 -11 -3 -11 -9 -16 -10 -11 -2 4 6 3 12 -3 12 -5 0 -12 -6 -14
-12 -4 -9 -8 -10 -14 -2 -4 6 -26 11 -47 12 -40 2 -60 11 -38 19 6 3 12 16 12
29 0 14 4 23 9 20 5 -3 9 0 8 7 -1 41 4 58 16 51 7 -5 7 -2 -2 10 -12 15 -12
17 0 14 8 -2 13 3 11 11 -1 7 2 19 8 25 5 7 7 16 3 19 -3 4 0 7 7 7 7 0 11 3
7 6 -3 4 0 18 7 33 7 14 12 36 11 48 -1 13 3 19 11 16 9 -3 12 2 9 16 -2 12 0
21 4 21 4 0 8 6 9 13 1 6 5 27 8 46 5 23 3 32 -4 27 -6 -3 -13 -2 -17 4 -4 6
-11 8 -16 5 -5 -4 -9 -1 -9 5 0 6 -4 9 -9 5 -5 -3 -16 2 -24 10 -12 11 -17 12
-20 2 -4 -9 -6 -9 -6 1 -1 7 -14 12 -32 12 -16 0 -28 4 -25 8 5 8 -27 13 -77
13 -9 0 -15 5 -11 11 4 6 -1 6 -14 -1 -14 -8 -23 -8 -27 -1 -9 14 -233 12
-259 -2 -10 -6 -16 -6 -13 -1 3 5 -4 10 -16 10 -17 2 -19 0 -7 -7z"/>
<path d="M1811 2138 c-5 -13 -7 -26 -4 -30 2 -5 -1 -8 -6 -8 -6 0 -11 -12 -11
-26 0 -19 -4 -25 -14 -21 -11 4 -13 1 -10 -11 12 -36 27 -61 36 -56 4 3 8 -3
8 -13 0 -15 2 -16 10 -3 8 13 10 12 10 -3 0 -10 5 -15 10 -12 6 3 10 -1 10
-10 0 -9 3 -15 8 -13 4 2 23 -13 43 -34 21 -21 35 -38 33 -38 -3 0 5 -11 18
-25 59 -63 66 -73 61 -79 -3 -3 2 -12 11 -21 9 -9 16 -23 16 -31 0 -8 5 -12
10 -9 6 4 10 -7 10 -25 0 -18 4 -29 10 -25 6 3 10 -1 10 -10 0 -8 4 -23 9 -33
4 -9 13 -31 18 -48 l10 -32 -126 -2 c-69 -2 -173 -3 -231 -4 -58 0 -111 -5
-119 -10 -10 -6 -12 -6 -7 2 8 14 -80 10 -93 -4 -6 -5 2 -30 18 -61 16 -29 31
-50 35 -46 6 6 10 -15 9 -44 -1 -7 4 -10 9 -7 5 3 12 -3 15 -15 3 -12 10 -21
15 -21 5 0 7 -4 4 -9 -3 -5 1 -12 10 -15 8 -3 12 -11 9 -16 -4 -6 3 -20 16
-31 12 -10 19 -19 15 -19 -4 0 2 -13 13 -29 11 -15 18 -31 14 -35 -3 -3 1 -6
10 -6 10 0 17 -8 17 -20 0 -11 3 -20 8 -20 4 0 14 -15 22 -32 7 -18 22 -42 32
-52 10 -11 18 -26 18 -34 0 -9 11 -30 25 -47 13 -18 21 -36 17 -40 -4 -5 -1
-5 6 -1 6 4 12 3 12 -3 0 -6 7 -8 15 -5 8 4 12 10 9 15 -3 5 2 12 10 15 9 3
13 10 10 15 -3 5 2 12 11 15 13 6 14 8 3 15 -10 7 -10 9 0 9 6 0 12 7 12 15 0
8 4 15 9 15 13 0 7 26 -18 77 -12 23 -21 47 -21 53 0 5 -4 10 -10 10 -5 0 -10
9 -10 21 0 11 -4 17 -10 14 -5 -3 -7 0 -4 8 3 8 -2 21 -10 30 -9 9 -16 23 -16
31 0 9 -4 16 -10 16 -5 0 -10 9 -10 20 0 11 7 20 16 20 9 0 12 5 8 13 -5 8 -2
8 9 -2 14 -11 17 -11 17 0 0 12 2 12 9 0 6 -9 10 -9 12 -2 2 6 23 12 46 13 27
1 40 5 36 12 -4 6 0 5 9 -2 11 -9 18 -10 23 -2 3 5 19 10 36 10 16 0 29 5 29
13 0 8 4 7 10 -3 8 -11 12 -12 18 -3 4 7 36 14 70 16 34 2 68 10 77 17 17 14
21 80 5 80 -5 0 -10 5 -10 11 0 5 4 8 10 4 5 -3 3 6 -5 21 -7 15 -11 33 -8 42
5 11 2 13 -8 7 -11 -6 -11 -5 -3 4 9 10 9 19 -2 39 -7 14 -11 29 -8 34 3 4 0
8 -5 8 -6 0 -11 8 -11 18 0 10 -7 28 -16 40 -8 12 -12 27 -9 32 3 6 -1 13 -9
16 -9 3 -13 10 -10 15 3 5 0 9 -6 9 -6 0 -9 4 -6 9 4 5 2 11 -3 13 -5 1 -11
10 -13 18 -2 8 -11 23 -20 34 -10 11 -18 26 -18 33 0 7 -4 13 -10 13 -5 0 -10
8 -10 18 0 14 -2 15 -10 2 -8 -12 -10 -11 -10 5 0 11 -9 27 -19 35 -11 7 -18
17 -15 22 3 4 -2 8 -10 8 -9 0 -15 3 -14 8 3 11 -55 72 -69 72 -7 0 -13 5 -13
10 0 6 -7 10 -16 10 -8 0 -12 5 -9 10 3 6 0 10 -7 10 -8 0 -20 9 -28 19 -7 11
-17 18 -21 15 -4 -2 -15 3 -23 12 -15 14 -17 13 -25 -8z"/>
<path d="M697 2122 c-9 -2 -15 -8 -12 -13 4 -5 -4 -9 -17 -9 -18 0 -20 -2 -8
-10 12 -8 10 -10 -8 -10 -13 0 -20 -4 -17 -10 6 -10 -9 -15 -30 -10 -5 1 -7
-2 -3 -5 4 -4 -12 -27 -35 -50 -23 -23 -51 -54 -62 -69 -11 -15 -26 -33 -32
-41 -7 -7 -13 -16 -13 -18 0 -3 -16 -29 -35 -58 -19 -29 -32 -56 -29 -61 3 -4
1 -8 -5 -8 -6 0 -13 -11 -17 -25 -3 -14 -10 -25 -16 -25 -5 0 -7 -4 -4 -8 3
-5 -2 -21 -10 -36 -7 -16 -14 -38 -14 -50 0 -12 -5 -27 -10 -32 -6 -6 -11 -27
-12 -47 -1 -23 -5 -34 -12 -30 -6 4 -5 0 2 -9 9 -11 10 -18 2 -23 -13 -8 -13
-122 0 -130 6 -3 10 -1 10 4 0 6 17 11 38 11 21 0 43 5 50 12 9 9 12 9 12 -2
0 -9 5 -8 18 6 11 11 18 32 17 51 -1 18 1 33 4 33 6 0 11 32 14 78 0 6 4 12 9
12 5 0 7 4 4 8 -3 5 2 21 10 36 7 16 14 37 14 48 0 10 5 16 10 13 6 -4 10 -3
9 2 -4 24 2 53 11 48 6 -4 10 6 10 22 0 22 2 25 10 13 8 -12 10 -10 10 10 0
14 9 32 19 40 11 7 18 17 15 21 -2 4 5 14 16 22 11 7 17 17 13 20 -3 4 2 7 11
7 12 0 16 5 13 14 -5 13 6 23 27 24 5 0 12 6 17 13 5 9 10 5 14 -14 4 -15 11
-24 16 -21 5 3 9 -4 9 -15 0 -12 5 -21 11 -21 5 0 8 -4 4 -9 -3 -5 6 -21 20
-35 14 -14 25 -32 25 -41 0 -8 4 -15 8 -15 5 0 14 -16 22 -35 8 -19 17 -35 22
-35 4 0 8 -7 8 -16 0 -8 4 -13 8 -10 4 2 9 -5 9 -17 1 -11 9 -24 17 -29 9 -5
13 -15 9 -25 -4 -11 -2 -14 5 -9 7 4 14 -3 18 -19 3 -14 11 -22 17 -18 6 4 8
0 4 -10 -3 -9 0 -18 9 -21 9 -3 13 -10 10 -14 -3 -5 3 -18 14 -29 10 -12 16
-24 12 -28 -4 -4 3 -1 16 6 12 8 22 22 22 31 0 10 5 18 10 18 6 0 10 7 10 15
0 8 5 15 10 15 6 0 10 9 10 20 0 11 5 20 11 20 5 0 7 5 4 10 -3 6 -2 10 3 10
13 0 53 81 46 92 -3 5 0 7 6 6 7 -2 18 12 24 30 6 18 18 37 26 42 8 5 11 10 6
10 -5 0 -2 8 7 18 10 10 14 22 10 25 -3 4 -1 7 6 7 7 0 9 5 6 10 -3 6 -1 10 4
10 6 0 11 7 11 16 0 9 5 12 13 8 6 -4 9 -4 5 1 -7 8 19 64 35 76 4 3 9 15 10
27 0 11 5 18 9 16 4 -3 8 2 8 10 0 9 5 16 12 16 6 0 8 3 5 7 -4 3 0 18 9 32 9
14 13 23 9 19 -4 -4 -14 0 -22 10 -8 9 -12 12 -8 5 4 -8 -6 -12 -32 -11 -77 2
-114 -2 -108 -12 3 -5 1 -10 -4 -10 -6 0 -11 -8 -11 -17 0 -15 -2 -16 -10 -3
-8 12 -10 9 -10 -13 0 -16 -4 -26 -10 -22 -5 3 -10 -1 -10 -10 0 -8 -13 -29
-30 -47 -16 -17 -30 -37 -30 -44 0 -8 -4 -14 -10 -14 -5 0 -10 -6 -10 -12 0
-7 -7 -21 -15 -31 -13 -18 -15 -17 -49 16 -19 19 -32 38 -29 41 4 3 -2 6 -12
6 -10 0 -15 3 -12 6 4 4 -3 15 -15 25 -11 11 -18 19 -15 19 4 0 -1 8 -10 18
-10 11 -21 17 -26 15 -4 -3 -7 -1 -6 4 3 19 -2 34 -9 29 -5 -3 -15 6 -22 19
-7 14 -17 25 -22 25 -4 0 -8 7 -8 16 0 8 -4 12 -10 9 -5 -3 -10 -1 -10 5 0 19
-55 66 -73 62z"/>
<path d="M665 1701 c-11 -9 -21 -24 -23 -35 -2 -10 -12 -28 -23 -39 -19 -21
-19 -57 -1 -80 5 -7 8 -20 6 -30 -1 -11 0 -16 4 -13 7 7 42 -60 42 -81 0 -7 5
-13 10 -13 6 0 10 -9 10 -20 0 -11 5 -20 10 -20 6 0 10 -9 10 -20 0 -11 4 -20
9 -20 6 0 9 -8 8 -18 -1 -12 -11 -18 -36 -20 -49 -3 -64 -6 -80 -16 -11 -7
-12 -6 -6 5 7 11 6 12 -6 2 -9 -7 -31 -13 -50 -14 -19 -2 -39 -6 -44 -10 -6
-4 -32 -9 -58 -10 -26 -2 -47 -8 -47 -13 0 -6 -5 -4 -10 4 -5 8 -10 10 -10 4
0 -11 -2 -11 -57 -15 -33 -2 -33 -3 -33 -53 0 -37 3 -47 10 -36 13 21 13 3 -1
-22 -6 -11 -7 -18 -2 -15 6 4 10 -8 11 -25 0 -17 6 -34 13 -38 8 -6 8 -9 -2
-13 -10 -4 -10 -6 -1 -6 6 -1 12 -10 12 -21 0 -11 5 -20 11 -20 6 0 9 -8 7
-18 -3 -10 1 -27 8 -37 8 -10 14 -27 14 -37 0 -10 5 -18 10 -18 6 0 10 -9 10
-20 0 -11 4 -20 8 -20 10 0 37 -51 34 -63 -1 -4 5 -10 13 -13 8 -4 15 -11 15
-18 0 -6 18 -30 40 -54 22 -23 40 -44 40 -46 0 -7 91 -96 97 -96 3 0 14 -9 24
-21 9 -11 21 -21 26 -22 4 -1 7 -6 5 -10 -1 -5 2 -6 7 -3 5 4 16 -1 24 -9 16
-16 52 -21 43 -6 -3 4 1 17 9 27 8 10 15 29 15 41 0 12 4 25 10 28 5 3 10 15
10 26 0 11 -4 17 -10 14 -5 -3 -10 2 -10 11 0 10 -3 14 -6 11 -4 -4 -15 3 -25
15 -11 11 -19 18 -19 14 0 -4 -11 4 -25 18 -14 14 -25 30 -25 36 0 6 -5 8 -10
5 -6 -3 -10 -1 -10 4 0 6 -8 11 -17 11 -15 0 -16 2 -3 10 13 8 12 10 -3 10
-10 0 -15 5 -12 10 3 6 1 10 -5 10 -6 0 -8 5 -4 12 4 7 3 8 -4 4 -7 -4 -17 3
-24 18 -6 14 -15 26 -20 26 -5 0 -6 5 -3 10 3 6 3 10 -2 10 -4 0 -14 14 -21
30 -8 17 -18 27 -24 24 -7 -4 -8 -2 -4 5 4 6 1 23 -8 36 -9 14 -17 36 -18 49
-1 14 -5 23 -8 21 -3 -2 -10 12 -16 30 -7 22 -7 32 -1 28 6 -4 8 0 5 9 -7 17
23 21 34 4 5 -7 8 -7 8 2 0 8 5 10 13 5 17 -10 57 -12 63 -1 3 4 10 8 15 8 6
0 8 -4 5 -8 -3 -5 8 -8 24 -8 16 0 27 3 25 6 -2 4 69 7 158 8 235 0 217 -2
217 28 0 14 -4 23 -10 19 -5 -3 -10 2 -10 13 0 10 -9 28 -20 40 -11 12 -20 28
-20 37 0 8 -4 15 -8 15 -5 0 -17 18 -27 40 -10 22 -22 40 -27 40 -5 0 -6 5 -3
10 3 6 2 10 -3 10 -5 0 -17 18 -27 40 -10 22 -22 40 -27 40 -4 0 -8 9 -8 21 0
11 -4 17 -10 14 -5 -3 -10 3 -10 14 0 12 -4 21 -10 21 -5 0 -10 7 -10 16 0 8
-5 12 -10 9 -6 -4 -9 -3 -8 2 4 12 -25 73 -34 73 -5 0 -8 6 -8 13 0 7 -9 23
-20 35 -11 12 -20 26 -20 32 0 6 -6 17 -13 24 -11 11 -16 11 -32 -3z"/>
<path d="M2204 1263 c5 -9 -2 -13 -24 -13 -23 0 -33 -5 -37 -20 -3 -11 -8 -18
-12 -16 -4 3 -7 -4 -7 -14 0 -10 3 -17 6 -15 3 2 6 -5 6 -15 0 -10 -4 -16 -8
-14 -4 3 -8 -8 -8 -25 0 -16 -4 -33 -10 -36 -5 -3 -10 -19 -10 -35 0 -16 -4
-32 -10 -35 -5 -3 -10 -19 -10 -36 0 -16 -4 -29 -10 -29 -5 0 -10 -9 -10 -21
0 -11 -4 -17 -10 -14 -6 4 -10 -5 -10 -20 0 -15 -4 -24 -10 -20 -5 3 -10 1
-10 -6 0 -16 -61 -109 -72 -109 -5 0 -7 -3 -5 -7 2 -5 -8 -19 -21 -33 -14 -14
-21 -18 -17 -10 8 13 7 13 -9 1 -15 -13 -19 -13 -26 -1 -5 8 -7 17 -5 20 2 4
-5 13 -16 20 -10 8 -19 22 -19 32 0 10 -4 18 -10 18 -5 0 -10 9 -10 21 0 11
-4 18 -8 15 -5 -3 -14 11 -21 30 -7 18 -17 34 -22 34 -5 0 -9 6 -9 14 0 7 -6
19 -14 26 -8 6 -12 19 -9 27 4 11 2 14 -5 9 -11 -6 -14 -1 -11 20 0 3 -9 14
-20 23 -11 10 -18 21 -14 25 3 3 1 6 -6 6 -7 0 -10 4 -7 9 3 5 -5 20 -19 35
-13 15 -24 27 -24 29 1 1 -5 14 -11 29 -18 38 -45 32 -61 -14 -6 -20 -16 -35
-20 -32 -9 5 -13 -10 -9 -36 1 -8 -1 -12 -6 -8 -4 4 -20 -18 -37 -50 -16 -31
-34 -59 -39 -60 -4 -2 -6 -8 -2 -13 3 -5 0 -9 -6 -9 -6 0 -8 -4 -5 -10 3 -5 1
-10 -5 -10 -7 0 -10 -7 -6 -15 3 -8 1 -15 -4 -15 -5 0 -12 -9 -15 -20 -4 -11
-11 -18 -16 -15 -5 4 -9 -5 -9 -19 0 -14 -4 -26 -8 -26 -5 0 -14 -16 -22 -35
-8 -19 -17 -35 -22 -35 -4 0 -8 -7 -8 -15 0 -8 -4 -15 -10 -15 -5 0 -10 -9
-10 -20 0 -11 -4 -20 -10 -20 -5 0 -10 -9 -10 -20 0 -11 -4 -20 -10 -20 -5 0
-10 -9 -10 -20 0 -11 -4 -20 -10 -20 -5 0 -10 -5 -10 -11 0 -5 5 -7 10 -4 6 3
10 2 10 -2 0 -5 24 -9 54 -9 35 0 52 4 48 11 -3 5 2 4 11 -4 14 -11 18 -11 23
3 3 9 9 14 13 12 4 -3 24 23 46 57 22 34 47 69 57 78 10 9 18 22 18 28 0 7 11
24 24 38 14 15 22 31 19 36 -3 6 -1 7 5 3 7 -4 12 -15 12 -24 0 -15 2 -15 10
-2 8 13 10 12 10 -3 0 -10 5 -15 10 -12 6 4 10 3 9 -2 -4 -21 2 -33 17 -33 8
0 13 -4 10 -8 -3 -5 4 -14 14 -22 10 -8 17 -17 14 -21 -2 -4 5 -10 15 -14 12
-4 18 -12 14 -21 -3 -8 1 -14 11 -14 9 0 16 -5 16 -11 0 -7 8 -19 18 -28 10
-9 30 -33 44 -53 13 -21 28 -35 31 -31 4 3 7 -1 7 -11 0 -9 5 -14 10 -11 6 3
10 -1 10 -9 0 -9 5 -16 10 -16 6 0 10 5 10 10 0 6 9 10 21 10 11 0 18 4 15 9
-3 5 8 14 24 21 16 7 27 16 24 21 -3 5 2 9 11 9 9 0 13 5 10 10 -3 6 -1 10 4
10 11 0 56 40 56 50 0 3 15 21 33 40 17 19 32 38 32 43 0 5 7 15 15 24 8 8 13
19 9 24 -3 5 -1 8 4 7 6 -2 10 1 11 5 0 4 7 15 16 23 8 9 13 20 10 25 -4 5 0
9 8 9 8 0 18 7 21 16 3 8 2 12 -4 9 -6 -3 -10 -1 -10 4 0 6 4 11 10 11 5 0 12
11 16 25 3 14 10 22 15 19 5 -3 7 5 5 18 -2 13 1 29 7 37 6 7 12 18 13 25 8
39 13 57 18 64 3 5 6 25 8 45 1 21 5 37 9 37 3 0 7 22 8 49 0 28 2 56 3 63 2
8 -9 14 -29 16 -21 2 -33 -1 -33 -9 0 -8 -5 -7 -17 2 -11 10 -14 10 -9 2z"/>
<path d="M634 984 c3 -8 1 -14 -4 -14 -6 0 -10 -4 -10 -10 0 -5 6 -9 13 -7 6
1 11 -4 10 -10 -2 -7 2 -13 8 -13 5 0 7 -4 4 -10 -3 -5 -2 -10 3 -10 5 0 15
-14 22 -30 7 -17 15 -28 18 -25 3 3 16 -2 30 -11 13 -9 21 -11 18 -5 -4 6 -3
11 3 11 5 0 12 -6 14 -12 4 -10 6 -10 6 0 1 6 6 12 12 12 5 0 7 -6 3 -12 -5
-9 -2 -9 9 1 9 7 17 9 17 3 0 -5 12 -10 28 -10 63 1 167 -5 174 -8 7 -4 -13
-66 -23 -74 -4 -3 -9 -16 -10 -30 -2 -14 -9 -31 -16 -38 -6 -7 -10 -21 -8 -32
2 -11 0 -18 -6 -15 -8 6 -13 -15 -10 -43 1 -7 -5 -15 -13 -18 -8 -3 -13 -14
-11 -24 2 -10 -4 -21 -13 -25 -14 -5 -14 -7 -2 -15 11 -7 12 -10 2 -10 -7 0
-11 -4 -7 -9 3 -5 0 -13 -6 -16 -5 -4 -8 -14 -5 -22 3 -8 1 -11 -4 -8 -16 10
-12 -45 4 -61 8 -8 24 -14 35 -14 12 0 21 -5 21 -11 0 -5 4 -8 8 -5 5 3 21 -1
36 -9 15 -8 24 -9 20 -3 -5 7 -2 8 7 2 8 -4 23 -10 34 -11 10 -2 23 -9 27 -16
6 -9 8 -8 8 3 0 11 2 12 8 2 5 -7 32 -13 65 -13 31 -1 55 -5 52 -8 -5 -9 72
-7 81 2 4 4 14 1 22 -6 12 -10 16 -9 20 1 3 10 7 10 20 0 12 -10 14 -10 8 0
-4 6 -3 12 1 12 5 0 15 -6 22 -12 11 -10 13 -10 7 0 -7 11 14 15 87 15 9 0 17
3 17 7 0 4 17 8 38 9 20 1 42 3 49 3 6 1 9 8 5 16 -3 10 -1 13 7 8 6 -4 19 -2
28 6 12 9 15 9 9 1 -5 -9 -2 -11 8 -7 9 3 16 9 16 13 0 4 6 8 13 8 6 0 29 7
50 16 39 17 51 50 21 61 -8 3 -12 10 -9 16 3 5 -1 10 -10 10 -9 0 -19 9 -22
19 -5 18 -22 31 -51 37 -6 1 -10 -2 -6 -7 3 -5 -9 -9 -25 -9 -17 0 -31 -4 -31
-10 0 -5 -9 -10 -20 -10 -11 0 -20 -4 -20 -10 0 -5 -15 -10 -33 -10 -18 0 -39
-6 -46 -13 -11 -10 -12 -9 -6 3 8 13 7 13 -8 1 -14 -11 -17 -11 -17 0 0 12 -2
12 -9 1 -4 -8 -30 -15 -58 -16 -27 -2 -56 -6 -63 -11 -8 -5 -11 -4 -7 2 5 7
-7 11 -33 10 -22 -1 -40 -6 -40 -12 0 -5 -4 -5 -8 2 -4 7 -31 13 -59 15 -28 2
-49 6 -46 11 2 4 -7 7 -21 7 -14 0 -26 5 -26 12 0 6 3 8 7 4 4 -3 15 13 26 36
11 24 27 52 36 62 11 14 12 17 2 11 -9 -5 -7 2 5 17 10 14 22 24 25 22 3 -2 5
8 3 21 -1 14 2 23 7 20 4 -3 11 6 15 20 3 14 10 25 15 25 5 0 9 7 9 15 0 8 9
24 20 35 23 23 26 34 8 25 -7 -4 -4 2 7 12 11 10 21 25 23 33 2 8 8 18 13 21
6 3 11 15 12 27 0 11 5 18 9 16 4 -3 8 2 8 10 0 9 4 16 8 16 5 0 9 6 9 13 0 6
2 19 4 27 4 13 -36 15 -313 15 -174 1 -315 -2 -313 -5 2 -3 -5 -6 -15 -6 -10
0 -17 3 -14 7 2 4 -8 7 -22 7 -17 0 -24 -5 -20 -14z"/>
</g>
</svg>
