<svg xmlns="http://www.w3.org/2000/svg" width="247.607" height="52.471" viewBox="0 0 247.607 52.471"><defs><style>.a{fill:#3a1b53;}.b{fill:#00a84f;}</style></defs><g transform="translate(61.173 10.403)"><path class="a" d="M219.258,65.41c9.564,0,14.408,7.582,14.408,15.757s-4.844,15.757-14.408,15.757S204.85,89.342,204.85,81.167,209.694,65.41,219.258,65.41Zm0,28.147c7.332,0,10.407-6.32,10.407-12.386s-3.075-12.386-10.407-12.386-10.407,6.32-10.407,12.386S211.926,93.557,219.258,93.557Z" transform="translate(-204.85 -65.41)"/><path class="a" d="M293.48,89.446h3.371v3.2h.083a8.027,8.027,0,0,1,7.036-3.708c2.655,0,5.1,1.053,5.983,3.708a8.058,8.058,0,0,1,6.826-3.708c4.341,0,7.246,1.812,7.246,6.32v15.967h-3.581V96.945c0-2.695-.716-4.844-4.214-4.844-3.455,0-5.686,2.192-5.686,5.56v13.565h-3.581V96.945c0-2.822-.886-4.844-4.088-4.844a5.874,5.874,0,0,0-5.813,5.56v13.565H293.48V89.446Z" transform="translate(-261.419 -80.428)"/><path class="a" d="M387.6,89.446h3.371V92.9h.083a7.586,7.586,0,0,1,7.079-3.961c5.73,0,7.5,3.285,7.5,7.962v14.325h-3.581V96.479a4.1,4.1,0,0,0-4.424-4.381c-4.341,0-6.446,2.908-6.446,6.826v12.3H387.6V89.446Z" transform="translate(-321.493 -80.428)"/><path class="a" d="M453.611,71.774H450.03V67.39h3.581Zm-3.581,3.918h3.581V97.475H450.03Z" transform="translate(-361.34 -66.674)"/><path class="a" d="M477.923,78.819h4.341v3.162h-4.341V95.506c0,1.642.463,1.939,2.7,1.939h1.642v3.162h-2.738c-3.708,0-5.184-.76-5.184-4.76V81.977H470.63V78.816h3.708V72.29h3.581l0,6.529Z" transform="translate(-374.488 -69.801)"/><path class="a" d="M512.81,89.441h3.371v4.594h.083c1.729-3.5,4.127-5.223,8.005-5.1V92.73c-5.773,0-7.879,3.285-7.879,8.8v9.691H512.81V89.441Z" transform="translate(-401.41 -80.423)"/><path class="a" d="M566.238,111.137a4.83,4.83,0,0,1-2.572.59c-1.852,0-3.031-1.009-3.031-3.371a9.659,9.659,0,0,1-7.669,3.371c-3.961,0-7.206-1.769-7.206-6.11,0-4.93,3.664-5.983,7.372-6.7,3.961-.76,7.332-.506,7.332-3.2,0-3.118-2.568-3.625-4.844-3.625-3.035,0-5.267.926-5.437,4.127H546.6c.21-5.393,4.381-7.289,9.228-7.289,3.918,0,8.172.886,8.172,5.983V106.12c0,1.686,0,2.442,1.136,2.442a3.114,3.114,0,0,0,1.1-.21l0,2.785Zm-5.813-11.163c-1.389,1.009-4.088,1.053-6.49,1.476-2.359.423-4.381,1.262-4.381,3.918,0,2.359,2.022,3.2,4.214,3.2,4.717,0,6.656-2.948,6.656-4.93V99.974Z" transform="translate(-422.441 -80.422)"/><path class="a" d="M623.707,96.439a5.069,5.069,0,0,0-5.393-4.341c-5.184,0-6.783,4.088-6.783,8.512,0,4,1.812,7.962,6.363,7.962,3.455,0,5.52-2.022,5.983-5.307h3.664c-.8,5.307-4.128,8.468-9.6,8.468-6.656,0-10.2-4.634-10.2-11.123,0-6.529,3.371-11.67,10.281-11.67,4.93,0,8.891,2.319,9.394,7.5Z" transform="translate(-462.001 -80.428)"/><path class="a" d="M672.691,104.367c.127,3.2,2.908,4.214,5.856,4.214,2.232,0,5.267-.506,5.267-3.245,0-2.782-3.538-3.245-7.119-4.044-3.538-.8-7.119-1.979-7.119-6.149,0-4.381,4.341-6.193,8.132-6.193,4.8,0,8.638,1.516,8.931,6.826h-3.581c-.253-2.782-2.695-3.664-5.057-3.664-2.149,0-4.634.59-4.634,2.782,0,2.568,3.791,2.992,7.119,3.791,3.581.8,7.119,1.979,7.119,6.193,0,5.184-4.844,6.866-9.268,6.866-4.887,0-9.014-1.979-9.228-7.372l3.581,0Z" transform="translate(-501.171 -80.435)"/></g><path class="b" d="M134.309,48.289c-.04-.025-.076-.054-.116-.08-.235-.159-.474-.307-.713-.459l-1.32,3.715a22.4,22.4,0,0,1,9.159,12.957l-15.041.246a.289.289,0,0,0-.242.438l9.224,15.45a.26.26,0,0,0,.427.011,19.027,19.027,0,0,0,1.791-3.426l-3.538-7.365,11.753-2.069A26.193,26.193,0,0,0,134.309,48.289Z" transform="translate(-93.346 -43.735)"/><path class="b" d="M75.119,39.266l-.127.061c-.253.123-.5.257-.752.391l2.557,3a22.41,22.41,0,0,1,15.8-1.454L85.291,54.411a.29.29,0,0,0,.257.43l17.989-.264a.258.258,0,0,0,.221-.362,19.167,19.167,0,0,0-2.069-3.263l-8.15-.619,4.088-11.214A26.181,26.181,0,0,0,75.119,39.266Z" transform="translate(-60.313 -36.65)"/><path class="b" d="M35.791,69.3c0,.047-.007.09-.011.137-.018.282-.029.564-.04.846l3.878-.713a22.417,22.417,0,0,1,6.641-14.412l7.734,12.9a.287.287,0,0,0,.5-.007l8.768-15.71a.258.258,0,0,0-.2-.373,18.915,18.915,0,0,0-3.86.163l-4.612,6.743L46.918,49.73A26.191,26.191,0,0,0,35.791,69.3Z" transform="translate(-35.74 -44.999)"/><path class="b" d="M47.3,111.981c.04.025.076.054.116.08.235.159.474.307.713.459l1.32-3.715a22.4,22.4,0,0,1-9.159-12.957L55.334,95.6a.289.289,0,0,0,.242-.438l-9.224-15.45a.26.26,0,0,0-.427-.011,19.026,19.026,0,0,0-1.791,3.426l3.538,7.365L35.92,92.563A26.206,26.206,0,0,0,47.3,111.981Z" transform="translate(-35.855 -64.062)"/><path class="b" d="M89.126,146.986l.127-.061c.253-.123.5-.257.752-.391l-2.557-3a22.409,22.409,0,0,1-15.8,1.454l7.307-13.145a.29.29,0,0,0-.257-.43l-17.989.264a.258.258,0,0,0-.221.362,19.168,19.168,0,0,0,2.069,3.263l8.15.619-4.088,11.214A26.169,26.169,0,0,0,89.126,146.986Z" transform="translate(-51.52 -97.132)"/><path class="b" d="M131.974,112.8c0-.047.007-.09.011-.137.018-.282.029-.564.04-.846l-3.878.713a22.416,22.416,0,0,1-6.641,14.412l-7.73-12.9a.287.287,0,0,0-.5.007l-8.768,15.71a.258.258,0,0,0,.2.373,18.914,18.914,0,0,0,3.86-.163l4.609-6.746,7.669,9.145A26.179,26.179,0,0,0,131.974,112.8Z" transform="translate(-79.613 -84.629)"/></svg>